<?xml version="1.0" encoding="UTF-8"?>
<svg width="265px" height="351px" viewBox="0 0 265 351" version="1.1" xmlns="http://www.w3.org/2000/svg" xmlns:xlink="http://www.w3.org/1999/xlink">
    <!-- Generator: Sketch 61.2 (89653) - https://sketch.com -->
    <title>Jerin Avatar</title>
    <desc>Created with Sketch.</desc>
    <g id="Page-1" stroke="none" stroke-width="1" fill="none" fill-rule="evenodd">
        <g id="Desktop" transform="translate(-979.000000, -337.000000)">
            <g id="Landing" transform="translate(100.000000, 337.000000)">
                <g id="Jerin-Avatar" transform="translate(879.000000, 0.000000)">
                    <path d="M53,185.347005 C70.9754943,166.152055 49.5979266,148.715118 57.5200124,128.772417 C69.4473762,98.7668846 55.4369462,99.3396307 67.862959,59.8519684 C77.3372912,29.6952948 97.299339,0 145.491358,0 C193.683376,0 216.17084,27.6509094 221.897262,50.4812057 C228.508383,76.8911651 224.583533,88.1710816 234.950607,106.021669 C242.56707,119.131191 241.819096,127.83375 239.904927,141.348967 C237.009545,161.800776 242.623369,176.930819 250.545455,181.186641 C237.178443,196.213271 170.423811,202.0521 118.146087,198.559939 C86.9563924,196.483735 62.4421612,192.816569 53,185.347005 Z" id="Path" fill="#280421" fill-rule="nonzero"></path>
                    <path d="M264.661872,321.94151 C260.652943,329.516116 235.733442,342.30026 196.029012,347.789452 C193.896262,348.085086 191.723423,348.364739 189.502476,348.588461 C140.160581,354.181524 83.3540609,350.002707 71.2070069,336.499455 C69.0662389,334.102428 68.5210246,313.472015 71.3032211,288.175389 C71.6880783,284.643769 72.1050069,280.984308 72.6662569,277.332837 C72.7704891,276.597748 72.8827391,275.85467 72.9869712,275.119582 C48.9895238,283.908681 25.5934157,285.786352 15.7555045,277.820232 C-12.4192466,245.252624 5.01157553,153.174825 8.8441114,151.153332 C12.6766473,149.131839 27.7983265,148.33283 29.5943265,149.826977 C31.3903266,151.321124 40.3222199,216.304528 40.3222199,216.304528 C76.1139356,192.741752 93.4645792,188.091519 124.461616,185.470769 L124.461616,185.566651 C136.825152,184.416078 154.512546,186.485511 165.849796,184.703721 C256.146907,170.48935 267.315783,316.939714 264.661872,321.94151 Z" id="Path" fill="#E3E2F6" fill-rule="nonzero"></path>
                    <path d="M173.453665,187.251322 C173.694723,198.021517 124.358196,199.188491 124.125173,188.410191 C124.608462,186.738249 124.978932,185.035218 125.23404,183.312785 C126.190236,177.088925 126.399153,167.793655 122.863636,159.000831 L169.886007,157.469178 C169.733337,158.214745 169.604773,158.935999 169.492279,159.64915 C158.524143,165.386771 147.997945,167.331727 143.216963,167.493807 L169.484244,173.604212 C169.954331,176.334873 170.631277,179.025173 171.509131,181.651468 C172.063564,183.482969 172.69835,185.338781 173.453665,187.251322 Z" id="Path" fill="#E0AA6E" fill-rule="nonzero"></path>
                    <path d="M203.568182,100.609638 C203.568182,131.160937 188.845022,148.443458 173.592598,157.884238 C161.122819,165.604841 148.292178,168.07608 142.871233,168.261827 L142.871233,168.261827 C142.33717,168.296286 141.801465,168.296286 141.267402,168.261827 C131.131196,167.365397 82.1903215,155.178796 85.7027094,94.9807043 C87.7235353,60.2541421 106.424194,31.2534247 120.353458,31.2534247 C125.541849,31.2534247 134.787929,33.7650435 137.145559,33.7650435 C140.208875,33.7650435 149.9762,32.1498545 156.39152,32.957449 C161.242226,33.5267015 165.980762,34.8252123 170.449091,36.8096746 C191.50738,49.7311861 192.044663,101.651435 203.327607,93.7612367 C203.48799,96.0117333 203.568182,98.2945336 203.568182,100.609638 Z" id="Path" fill="#E0AA6E" fill-rule="nonzero"></path>
                    <path d="M203.568182,92.9655699 C192.396918,100.687013 191.897423,49.9088453 171.045455,37.2636986 C190.95393,46.0520756 201.919053,67.8649537 203.568182,92.9655699 Z" id="Path" fill="#E5B275" fill-rule="nonzero"></path>
                    <ellipse id="Oval" fill="#280421" fill-rule="nonzero" cx="165.022727" cy="96.1643836" rx="4.81818182" ry="7.21232877"></ellipse>
                    <line x1="166.227273" y1="93.760274" x2="172.25" y2="91.3561644" id="Path" stroke="#280421" stroke-width="2" stroke-linecap="round"></line>
                    <ellipse id="Oval" fill="#280421" fill-rule="nonzero" cx="114.431818" cy="96.1643836" rx="4.81818182" ry="7.21232877"></ellipse>
                    <line x1="112.022727" y1="93.760274" x2="106" y2="91.3561644" id="Path" stroke="#280421" stroke-width="2" stroke-linecap="round"></line>
                    <path d="M150.181516,77.0113699 C149.396937,76.9009904 148.753582,71.8603261 150.346277,71.4923944 C171.365156,66.8472566 177.759477,72.1270766 181.886364,78.1335616 C178.52045,76.4869959 174.94285,75.513813 171.302389,75.2544961 C162.805396,74.7945814 153.084459,77.5816641 150.181516,77.0113699 Z" id="Path" fill="#280421" fill-rule="nonzero"></path>
                    <path d="M124.590912,78.1106689 C125.357941,78.1106689 125.756796,73.8454942 124.245749,73.282667 C104.563794,65.9659138 103.190812,71.3391545 98.7727273,76.7036009 C101.672096,74.944766 103.259845,74.6985292 106.657782,74.8392359 C114.972373,75.1910029 121.691544,78.4360533 124.590912,78.1106689 Z" id="Path" fill="#280421" fill-rule="nonzero"></path>
                    <ellipse id="Oval" fill="#E0AA6E" fill-rule="nonzero" transform="translate(207.718388, 102.620090) rotate(-69.130000) translate(-207.718388, -102.620090) " cx="207.718388" cy="102.62009" rx="15.9640686" ry="7.20104824"></ellipse>
                    <ellipse id="Oval" fill="#C96F6F" fill-rule="nonzero" opacity="0.29" cx="172.25" cy="120.205479" rx="13.25" ry="13.2226027"></ellipse>
                    <ellipse id="Oval" fill="#C96F6F" fill-rule="nonzero" opacity="0.29" cx="108.409091" cy="120.205479" rx="13.25" ry="13.2226027"></ellipse>
                    <path d="M136.231728,98.5684932 C136.231728,98.5684932 124.432843,119.538116 137.318182,121.407534" id="Path" stroke="#280421" stroke-width="2" stroke-linecap="round"></path>
                    <path d="M207.181818,69.5244896 L203.014394,94.1731953 C192.234445,102.10583 188.757914,47.9260214 168.636364,34.9350134 C175.047717,33.4166893 196.118791,55.1613063 207.181818,69.5244896 Z" id="Path" fill="#280421" fill-rule="nonzero"></path>
                    <path d="M169.308276,174.297945 L144.545455,167.821233 C149.167027,167.650558 159.157152,166.662915 169.840909,161.075342 C169.067667,165.938299 168.56588,169.42919 169.308276,174.297945 Z" id="Path" fill="#C69259" fill-rule="nonzero"></path>
                    <path d="M131.295455,141.842466 C137.042683,143.445205 143.616408,143.445205 149.363636,141.842466" id="Path" stroke="#280421" stroke-width="2" stroke-linecap="round"></path>
                    <ellipse id="Oval" stroke="#280421" stroke-linecap="round" cx="168.034091" cy="97.9674658" rx="19.875" ry="19.8339041"></ellipse>
                    <ellipse id="Oval" stroke="#280421" stroke-linecap="round" cx="109.011364" cy="96.1643836" rx="18.6704545" ry="19.2328767"></ellipse>
                    <path d="M127.681818,100.972603 C127.681818,95.5166143 133.049638,91.3561644 138.161523,91.3561644 C143.273408,91.3561644 148.159091,96.7425011 148.159091,100.692574" id="Path" stroke="#280421" stroke-linecap="round"></path>
                    <polyline id="Path" stroke="#280421" stroke-linecap="round" points="187.909091 96.1643836 203.568182 88.1261936 201.756225 80.5376712"></polyline>
                    <path d="M35.7357665,128.957753 C37.7339991,137.692051 31.926128,147.098218 25.6471289,145.202587 C15.899653,142.243164 13.1703597,143.786863 11.1721272,135.044567 C9.1738946,126.302271 16.5576076,121.207264 24.1687618,119.511594 C31.7799159,117.815925 33.737534,120.215457 35.7357665,128.957753 Z" id="Path" fill="#E0AA6E" fill-rule="nonzero"></path>
                    <path d="M22.254135,122.232474 C22.254135,122.232474 16.1550519,100.366962 18.6810155,99.8117988 C23.6290266,98.7252645 26.9623394,119.464587 28.3212439,119.345624 C30.8392139,119.123558 34.1405525,102.421067 37.0422133,103.880354 C42.0062114,106.362728 33.0454354,123.231768 33.5250487,126.792745 C33.6529456,127.736523 23.2213552,128.474098 22.254135,122.232474 Z" id="Path" fill="#E0AA6E" fill-rule="nonzero"></path>
                    <path d="M196.340909,347.780368 C194.220704,348.082111 192.060645,348.367544 189.852762,348.59589 C185.739882,332.048932 188.80063,277.188709 193.041041,272.866438 C193.327986,275.125437 193.327986,337.627108 196.340909,347.780368 Z" id="Path" fill="#190502" fill-rule="nonzero" opacity="0.31"></path>
                </g>
            </g>
        </g>
    </g>
</svg>